<svg t="1729830897470" class="icon" viewBox="0 0 1044 1024" version="1.1" xmlns="http://www.w3.org/2000/svg" p-id="1249" data-spm-anchor-id="a313x.collections_detail.0.i1.3f093a81Fl7pbo" width="32" height="32"><path d="M522.210826 939.658575c-235.665869 0-427.396011-191.730142-427.396011-427.396011S286.544957 84.866553 522.210826 84.866553s427.396011 191.730142 427.396012 427.396011-191.730142 427.396011-427.396012 427.396011z m0-840.205128c-227.613903 0-412.809117 185.195214-412.809117 412.809117s185.195214 412.809117 412.809117 412.809117 412.809117-185.195214 412.809117-412.809117S749.824729 99.453447 522.210826 99.453447z" p-id="1250" data-spm-anchor-id="a313x.collections_detail.0.i2.3f093a81Fl7pbo" class="selected" fill="#b66ffd"></path><path d="M598.908718 622.627009h-0.466781c-2.304729-0.145869-4.405242-1.371168-5.659715-3.296639l-15.520456-23.922507a7.299282 7.299282 0 0 1 12.252992-7.93527l10.181652 15.695498 28.707009-33.929117a7.243852 7.243852 0 0 1 10.269174-0.84604c3.063248 2.596467 3.471681 7.205926 0.846039 10.269174l-35.03772 41.426781c-1.400342 1.604558-3.442507 2.53812-5.572194 2.53812z" p-id="1251" data-spm-anchor-id="a313x.collections_detail.0.i4.3f093a81Fl7pbo" class="selected" fill="#b66ffd"></path><path d="M498.113276 702.213105a7.293447 7.293447 0 0 1-7.293447-7.293447v-162.352137h-72.671909c-2.800684 0-5.367977-1.604558-6.564102-4.142678-1.225299-2.53812-0.875214-5.513846 0.875213-7.70188l162.789744-203.574701a7.281778 7.281778 0 0 1 12.77812 6.214017l-37.400798 160.689231h83.291168c2.683989 0 5.163761 1.487863 6.418234 3.85094 1.283647 2.363077 1.137778 5.251282-0.350086 7.497664l-19.167179 28.707009a7.29053 7.29053 0 0 1-10.123305 2.012991 7.29053 7.29053 0 0 1-2.012992-10.123305l11.581995-17.358404H541.465527c-2.217208 0-4.317721-1.021083-5.718063-2.77151-1.371168-1.750427-1.896296-4.025983-1.400341-6.184844l32.207863-138.312934-133.236695 166.582336h64.794985a7.293447 7.293447 0 0 1 7.293448 7.293447v145.577208l30.95339-46.415498a7.29053 7.29053 0 0 1 10.123305-2.012992c3.354986 2.246382 4.259373 6.768319 2.012991 10.123305l-44.314985 66.428718a7.293447 7.293447 0 0 1-6.068149 3.267464z" p-id="1252" data-spm-anchor-id="a313x.collections_detail.0.i3.3f093a81Fl7pbo" class="selected" fill="#b66ffd"></path><path d="M606.143818 665.279088c-40.201481 0-72.905299-32.703818-72.905299-72.905299s32.703818-72.905299 72.905299-72.905299 72.905299 32.703818 72.905299 72.905299-32.703818 72.905299-72.905299 72.905299z m0-131.223703c-32.149516 0-58.318405 26.168889-58.318405 58.318404s26.168889 58.318405 58.318405 58.318405 58.318405-26.168889 58.318404-58.318405-26.168889-58.318405-58.318404-58.318404z" p-id="1253" data-spm-anchor-id="a313x.collections_detail.0.i6.3f093a81Fl7pbo" class="selected" fill="#b66ffd"></path></svg>