<svg t="1731730179004" class="icon" viewBox="0 0 1024 1024" version="1.1" xmlns="http://www.w3.org/2000/svg" p-id="4304" width="32" height="32"><path d="M512 305.152c-113.664 0-205.824 92.16-205.824 205.824S398.336 716.8 512 716.8c113.664 0 205.824-92.16 205.824-205.824 0-113.664-92.16-205.824-205.824-205.824z m0 346.112c-77.824 0-140.8-62.976-140.8-140.8S434.176 369.664 512 369.664s140.8 62.976 140.8 140.8-62.464 141.312-140.8 140.8c0 0.512 0 0.512 0 0z" fill="#FEA000" p-id="4305"></path><path d="M958.976 393.728L885.76 382.464c-4.608-13.824-10.24-27.648-16.896-40.96l44.032-59.904c25.6-25.088 25.6-66.56 0-91.648l-77.312-77.824c-25.088-25.6-66.56-25.6-91.648 0l-58.88 44.032c-13.312-6.656-27.136-12.288-40.96-17.408l-11.264-73.728c0-35.84-29.184-65.024-65.024-65.024H458.24c-35.84 0-65.024 29.184-65.024 65.024l-11.264 72.704c-13.824 4.608-27.648 10.24-40.96 16.896l-60.416-44.032c-25.088-25.6-66.56-25.6-91.648 0l-76.8 77.312c-25.6 25.088-25.6 66.56 0 91.648l44.032 59.904c-6.144 12.8-11.776 26.112-16.384 39.936L65.024 389.12C29.184 389.12 0 418.304 0 454.144v109.568c0 35.84 29.184 65.024 65.024 65.024l74.24 11.264c4.608 13.824 10.24 27.648 16.384 40.96l-45.568 61.44c-25.6 25.088-25.6 66.56 0 91.648L187.392 911.36c25.088 25.6 66.56 25.6 91.648 0l60.928-44.544c12.8 6.144 26.112 11.776 39.424 16.384l11.264 75.776c0 35.84 29.184 65.024 65.024 65.024h109.568c35.84 0 65.024-29.184 65.024-65.024l11.264-74.24c13.312-4.608 26.624-10.24 39.424-16.384l61.44 45.056c25.088 25.6 66.56 25.6 91.648 0l77.312-77.312c25.6-25.088 25.6-66.56 0-91.648l-44.032-59.904c6.144-12.8 11.776-26.112 16.896-39.936l74.752-11.264c35.84 0 65.024-29.184 65.024-65.024V458.24c0-35.84-29.184-65.024-65.024-65.024v0.512z m0 174.592h-9.728l-74.752 11.264-38.4 5.632-12.8 36.352c-4.096 11.264-8.704 22.016-13.824 32.256l-17.408 35.328 23.552 32.256 44.032 59.904 3.072 4.096 3.584 3.584-77.824 78.848-3.584-3.584-4.096-3.072-61.44-45.056-32.256-23.04-33.792 17.92c-10.752 5.12-21.504 9.728-32.256 13.824l-36.864 12.8-6.656 38.4-11.264 74.24v9.728H455.68v-11.264l-11.264-75.776-5.632-38.4-36.864-12.8c-11.264-4.096-22.016-8.704-32.256-13.824l-35.328-16.896L302.08 814.08l-60.928 44.544-4.096 3.072-3.584 3.584-77.312-76.8 3.584-3.584 2.56-4.096 45.568-61.44 23.04-32.256-16.896-34.816c-5.12-10.752-9.728-21.504-13.824-32.256l-12.8-35.84-38.4-6.656-74.24-11.264h-9.728V454.144h9.728l74.752-11.264 38.4-5.632 12.8-36.864c4.096-11.264 8.704-22.016 13.824-32.256l16.896-34.816-23.04-32.256L163.84 241.664l-2.048-4.096-4.096-3.584 77.312-77.312 3.584 3.584 4.096 2.56 60.416 44.544 32.256 23.04 34.816-16.896c11.264-5.632 22.528-10.24 34.304-14.336l36.864-12.8 5.632-38.4 10.24-72.704v-9.728h110.08v9.728l11.264 73.728 5.12 38.4 36.864 12.8c11.776 4.096 23.04 8.704 34.304 14.336l35.328 17.408 32.256-23.552 59.392-43.52 4.096-2.048 3.584-3.584 77.312 77.312-3.584 3.584-3.072 4.096-44.544 59.392-23.04 32.256 17.408 33.792c5.12 11.264 9.728 22.528 13.824 34.304l12.8 36.864 38.912 5.632 73.216 11.264h9.728l0.512 110.592z" fill="#FEA000" p-id="4306"></path><path d="M512 497.664m-170.496 0a170.496 170.496 0 1 0 340.992 0 170.496 170.496 0 1 0-340.992 0Z" fill="#FEA000" opacity=".4" p-id="4307"></path></svg>