<svg t="1730690404000" class="icon" viewBox="0 0 1024 1024" version="1.1" xmlns="http://www.w3.org/2000/svg" p-id="11817" width="32" height="32"><path d="M805.093878 462.367347H219.428571V194.35102C219.428571 150.465306 254.955102 114.938776 298.840816 114.938776h426.840817c43.885714 0 79.412245 35.526531 79.412245 79.412244v268.016327z" fill="#F2CB51" p-id="11818"></path><path d="M725.681633 909.061224H298.840816c-43.885714 0-79.412245-35.526531-79.412245-79.412244v-109.191837h585.665307v109.191837c0 43.885714-36.04898 79.412245-79.412245 79.412244z" fill="#F2CB51" p-id="11819"></path><path d="M685.97551 257.044898H338.546939c-10.971429 0-19.853061-8.881633-19.853061-19.853061 0-10.971429 8.881633-19.853061 19.853061-19.853061h347.428571c10.971429 0 19.853061 8.881633 19.853061 19.853061 0 10.971429-9.404082 19.853061-19.853061 19.853061z" fill="#AF8015" p-id="11820"></path><path d="M829.64898 760.163265H194.35102c-43.885714 0-79.412245-35.526531-79.412244-79.412245V502.073469c0-43.885714 35.526531-79.412245 79.412244-79.412245h635.29796c43.885714 0 79.412245 35.526531 79.412244 79.412245v178.677551c0 43.885714-35.526531 79.412245-79.412244 79.412245z" fill="#E5404F" p-id="11821"></path><path d="M685.97551 359.967347H338.546939c-10.971429 0-19.853061-8.881633-19.853061-19.853061 0-10.971429 8.881633-19.853061 19.853061-19.853062h347.428571c10.971429 0 19.853061 8.881633 19.853061 19.853062 0 10.971429-9.404082 19.853061-19.853061 19.853061z" fill="#AF8015" p-id="11822"></path><path d="M438.334694 527.673469h-94.040816c-2.612245 0-5.22449 2.089796-5.22449 5.22449v10.44898c0 2.612245 2.089796 5.22449 5.22449 5.22449h35.52653v114.416326c0 2.612245 2.089796 5.22449 5.22449 5.22449H397.061224c2.612245 0 5.22449-2.089796 5.22449-5.22449V548.571429h36.04898c2.612245 0 4.702041-2.089796 4.702041-5.22449v-10.44898c0.522449-2.612245-2.089796-5.22449-4.702041-5.22449zM525.583673 594.546939l39.706123-58.514286c1.044898-1.567347 1.044898-3.657143 0.522449-5.22449-1.044898-1.567347-2.612245-2.612245-4.179592-2.612245h-13.583673c-1.567347 0-3.134694 1.044898-4.179592 2.089796l-31.346939 47.542857-31.869388-47.542857c-1.044898-1.567347-2.612245-2.089796-4.179592-2.089796h-13.583673c-2.089796 0-3.657143 1.044898-4.179592 2.612245-1.044898 1.567347-0.522449 3.657143 0.522449 5.22449l40.75102 58.514286-45.453061 65.306122c-1.044898 1.567347-1.044898 3.657143-0.522449 5.22449s2.612245 2.612245 4.179592 2.612245h13.583674c1.567347 0 3.134694-1.044898 4.179591-2.089796l35.526531-53.289796 35.526531 53.289796c1.044898 1.567347 2.612245 2.089796 4.179591 2.089796h13.583674c2.089796 0 3.657143-1.044898 4.179592-2.612245 1.044898-1.567347 0.522449-3.657143 0-5.22449l-43.363266-65.306122zM679.706122 527.673469h-94.040816c-2.612245 0-4.702041 2.089796-4.702041 5.22449v10.44898c0 2.612245 2.089796 5.22449 4.702041 5.22449h35.526531v114.416326c0 2.612245 2.089796 5.22449 5.22449 5.22449h12.016326c2.612245 0 5.22449-2.089796 5.22449-5.22449V548.571429h36.048979c2.612245 0 5.22449-2.089796 5.22449-5.22449v-10.44898c-0.522449-2.612245-2.612245-5.22449-5.22449-5.22449z" fill="#FFEEF0" p-id="11823"></path></svg>